Exact Audio Copy V0.99 prebeta 5 from 4. May 2009

EAC extraction logfile from 18. July 2009, 14:02

Various Artists / Back In The Box (unmixed)

Used drive  : PIONEER DVD-RW  DVR-115D   Adapter: 0  ID: 0

Read mode               : Secure
Utilize accurate stream : Yes
Defeat audio cache      : Yes
Make use of C2 pointers : No

Read offset correction                      : 48
Overread into Lead-In and Lead-Out          : No
Fill up missing offset samples with silence : Yes
Delete leading and trailing silent blocks   : No
Null samples used in CRC calculations       : Yes
Used interface                              : Native Win32 interface for Win NT & 2000
Gap handling                                : Appended to previous track

Used output format              : User Defined Encoder
Selected bitrate                : 128 kBit/s
Quality                         : High
Add ID3 tag                     : No
Command line compressor         : I:Program FilesExact Audio CopyFlacflac.exe
Additional command line options : -V -8 -T "artist=%a" -T "title=%t" -T "album=%g" -T "date=%y" -T "tracknumber=%n" -T "genre=%m" %s


TOC of the extracted CD

     Track |   Start  |  Length  | Start sector | End sector 
    ---------------------------------------------------------
        1  |  0:00.00 |  5:54.47 |         0    |    26596   
        2  |  5:54.47 |  7:49.18 |     26597    |    61789   
        3  | 13:43.65 |  6:38.21 |     61790    |    91660   
        4  | 20:22.11 |  5:32.20 |     91661    |   116580   
        5  | 25:54.31 |  6:55.44 |    116581    |   147749   
        6  | 32:50.00 |  7:31.66 |    147750    |   181640   
        7  | 40:21.66 |  6:31.46 |    181641    |   211011   
        8  | 46:53.37 |  5:32.17 |    211012    |   235928   
        9  | 52:25.54 |  8:40.62 |    235929    |   274990   
       10  | 61:06.41 |  8:12.46 |    274991    |   311936   
       11  | 69:19.12 |  7:39.46 |    311937    |   346407   


Track  1

     Filename C:EACBack In The Box (unmixed) 1 - Blue Boy - Sandman.wav

     Pre-gap length  0:00:02.00

     Peak level 100.0 %
     Track quality 99.9 %
     Test CRC B7A8E7E3
     Copy CRC B7A8E7E3
     Track not present in AccurateRip database
     Copy OK

Track  2

     Filename C:EACBack In The Box (unmixed) 2 - Secret Ingredients - Chicago Chicago.wav

     Peak level 100.0 %
     Track quality 100.0 %
     Test CRC 8CCBBDC3
     Copy CRC 8CCBBDC3
     Track not present in AccurateRip database
     Copy OK

Track  3

     Filename C:EACBack In The Box (unmixed) 3 - Mousse T. - Ooh Song.wav

     Pre-gap length  0:00:02.00

     Peak level 100.0 %
     Track quality 100.0 %
     Test CRC A7B6D9A2
     Copy CRC A7B6D9A2
     Track not present in AccurateRip database
     Copy OK

Track  4

     Filename C:EACBack In The Box (unmixed) 4 - Cajmere Ft Daejee - Brighter Days (Underground Goodie).wav

     Pre-gap length  0:00:02.00

     Peak level 99.9 %
     Track quality 100.0 %
     Test CRC C90EA17A
     Copy CRC C90EA17A
     Track not present in AccurateRip database
     Copy OK

Track  5

     Filename C:EACBack In The Box (unmixed) 5 - The Brand New Heavies - Shelter (Danny D mix).wav

     Pre-gap length  0:00:02.00

     Peak level 97.6 %
     Track quality 100.0 %
     Test CRC 31782537
     Copy CRC 31782537
     Track not present in AccurateRip database
     Copy OK

Track  6

     Filename C:EACBack In The Box (unmixed) 6 - Cricco Castelli - Life Is Changing.wav

     Peak level 94.4 %
     Track quality 100.0 %
     Test CRC EF0569F1
     Copy CRC EF0569F1
     Track not present in AccurateRip database
     Copy OK

Track  7

     Filename C:EACBack In The Box (unmixed) 7 - Bob Sinclar - The Ghetto (original cleared version).wav

     Pre-gap length  0:00:02.00

     Peak level 99.4 %
     Track quality 100.0 %
     Test CRC 2E3B11C9
     Copy CRC 2E3B11C9
     Track not present in AccurateRip database
     Copy OK

Track  8

     Filename C:EACBack In The Box (unmixed) 8 - Johnny Fiasco - Conduction.wav

     Peak level 94.4 %
     Track quality 100.0 %
     Test CRC A8718F9F
     Copy CRC A8718F9F
     Track not present in AccurateRip database
     Copy OK

Track  9

     Filename C:EACBack In The Box (unmixed) 9 - DJ Sneak - You Can't Hide From Your Bud.wav

     Peak level 100.0 %
     Track quality 100.0 %
     Test CRC 04A6BCD4
     Copy CRC 04A6BCD4
     Track not present in AccurateRip database
     Copy OK

Track 10

     Filename C:EACBack In The Box (unmixed)10 - I-Cube - Disco Cubizm (Daft Punk mix).wav

     Peak level 99.9 %
     Track quality 100.0 %
     Test CRC F1BE2E33
     Copy CRC F1BE2E33
     Track not present in AccurateRip database
     Copy OK

Track 11

     Filename C:EACBack In The Box (unmixed)11 - Blak 'N' Spanish - Call Da Vibe.wav

     Pre-gap length  0:00:02.00

     Peak level 100.0 %
     Track quality 99.9 %
     Test CRC DDC33AE4
     Copy CRC DDC33AE4
     Track not present in AccurateRip database
     Copy OK


None of the tracks are present in the AccurateRip database

No errors occurred

End of status report
